<svg width="1488" height="643" viewBox="0 0 1488 643" fill="none" xmlns="http://www.w3.org/2000/svg">
<path d="M436.774 138.045V135.466C436.774 135.138 436.935 134.831 437.205 134.644L445.637 128.811C445.708 128.761 445.773 128.703 445.829 128.637L452.148 121.219C452.505 120.8 452.456 120.172 452.039 119.813L443.317 112.304C443.227 112.227 443.127 112.167 443.016 112.126C440.171 111.057 434.299 108.639 432.288 107.016C431.377 106.28 430.516 105.79 429.785 105.472C429.019 105.139 428.551 103.976 429.031 103.293C430.527 101.169 432.288 98.2609 432.288 96.6731C432.288 94.8557 429.98 92.6391 428.406 91.4261C428.055 91.1555 427.566 91.1756 427.221 91.4541L424.086 93.9844C424.001 94.0526 423.906 94.1065 423.805 94.1441L408.748 99.7139C408.637 99.755 408.519 99.776 408.401 99.776H405.908C405.012 99.776 404.568 98.6872 405.209 98.0607L414.494 88.9895C415.02 88.4756 414.83 87.5887 414.14 87.3354L408.58 85.2957L394.663 79.6797C394.544 79.6317 394.417 79.6071 394.289 79.6071H383.385C383.107 79.6071 382.841 79.7227 382.652 79.9263L375.334 87.8018C375.285 87.8548 375.23 87.9023 375.17 87.9434L366.72 93.7891C366.45 93.9759 366.289 94.2832 366.289 94.6115V104.501C366.289 104.785 366.168 105.056 365.956 105.246L360.74 109.923C360.598 110.051 360.421 110.135 360.232 110.166L348.23 112.103C347.903 112.156 347.623 112.368 347.483 112.669L343.862 120.462L339.66 128.213C339.485 128.536 339.148 128.736 338.781 128.736H337.451C337.062 128.736 336.708 128.511 336.544 128.158L333.22 121.002C333.065 120.669 333.105 120.279 333.324 119.984L336.24 116.062C336.56 115.631 336.483 115.024 336.065 114.687L333.164 112.345C333.036 112.242 332.884 112.172 332.722 112.141L322.349 110.171C322.17 110.137 322.004 110.055 321.868 109.933L316.594 105.203C316.41 105.038 316.172 104.948 315.926 104.948H302C301.235 104.948 300.753 104.123 301.129 103.457L303.203 99.7738C303.382 99.4562 303.374 99.0663 303.182 98.7564L300.895 95.0655C300.575 94.5489 300.786 93.8685 301.342 93.6237L307.216 91.038C307.297 91.0024 307.373 90.9563 307.441 90.9009L311.105 87.9438C311.157 87.9024 311.212 87.8661 311.27 87.8356L322.012 82.2262C322.054 82.204 322.098 82.1849 322.144 82.169L336.728 77.0512C336.785 77.0313 336.84 77.0063 336.892 76.9765L347.588 70.8829C347.667 70.8382 347.751 70.8043 347.839 70.7822L354.62 69.0718C355.591 68.8269 356.279 70.0025 355.591 70.7292L351.228 75.3335C350.624 75.9708 351.076 77.0213 351.954 77.0213H353.296C353.413 77.0213 353.53 77.042 353.64 77.0825L360.14 79.4669C360.385 79.5568 360.655 79.5473 360.893 79.4405L366.205 77.059C366.261 77.0339 366.314 77.0038 366.365 76.9689L374.829 71.1137C375.099 70.9269 375.26 70.6196 375.26 70.2913V68.6332C375.26 68.3743 375.36 68.1256 375.54 67.9392L379.745 63.5754L386.076 56.7622C386.368 56.4484 385.94 55.9896 385.607 56.2587V56.2587C385.545 56.3082 385.469 56.3352 385.39 56.3352H366.524C366.369 56.3352 366.217 56.2995 366.079 56.2309L358.514 52.4738C358.174 52.3048 357.959 51.9579 357.959 51.5781V41.3035C357.959 40.7512 358.407 40.3035 358.959 40.3035H362.9C363.022 40.3035 363.143 40.2812 363.257 40.2376L375.087 35.7151C375.201 35.6715 375.322 35.6492 375.444 35.6492H378.745C379.297 35.6492 379.745 36.0969 379.745 36.6492V38.2741C379.745 38.5764 379.608 38.8624 379.373 39.0523L375.376 42.278C375.299 42.3404 375.231 42.414 375.176 42.4963L371.86 47.4023C371.6 47.7878 371.639 48.3021 371.956 48.643L374.907 51.8186C375.128 52.0566 375.451 52.1723 375.773 52.129L382.949 51.1637H389.263C389.325 51.1637 389.388 51.1578 389.449 51.1462L399.618 49.215C400.003 49.142 400.395 49.3001 400.621 49.6196L405.22 56.1144C405.322 56.259 405.461 56.3738 405.622 56.4471L414.152 60.3193C414.829 60.6269 414.946 61.5406 414.366 62.008L412.424 63.5754L405.627 68.0642C405.463 68.1722 405.272 68.2297 405.076 68.2297H397.21C397.101 68.2297 396.994 68.2473 396.891 68.2819L391.085 70.2344C390.336 70.486 390.161 71.4647 390.775 71.9604L394.208 74.7309C394.386 74.8744 394.607 74.9527 394.836 74.9527H405.081C405.274 74.9527 405.462 75.0082 405.624 75.1126L408.58 77.0213L418.111 82.1497C418.165 82.1784 418.22 82.2022 418.278 82.2208L427.333 85.144C427.629 85.2396 427.953 85.1919 428.209 85.0148L432.288 82.1928L436.617 79.6973C436.721 79.6376 436.813 79.5599 436.889 79.4678L440.264 75.3821C440.484 75.1151 440.551 74.7531 440.44 74.4251L437.875 66.8338C437.554 65.8856 438.671 65.1069 439.45 65.7355L445.384 70.5241C445.613 70.7089 445.911 70.7835 446.2 70.7279L458.726 68.3209C459.026 68.2633 459.283 68.072 459.424 67.8014L464.044 58.9456C464.218 58.613 464.191 58.2113 463.974 57.9052L459.365 51.3961C459.258 51.2442 459.11 51.1253 458.939 51.0529L445.745 45.4751L432.646 40.441C432.416 40.3525 432.226 40.1819 432.114 39.9621L428.148 32.1874C427.944 31.788 428.031 31.3018 428.36 30.9979L432.201 27.4549C432.259 27.4017 432.323 27.3554 432.392 27.317L440.555 22.7556C440.597 22.7322 440.641 22.7117 440.686 22.6946L452.793 18.066L468.812 13.4116L480.151 8.32765C480.28 8.26995 480.419 8.24012 480.56 8.24012H492.705C492.995 8.24012 493.271 8.36592 493.461 8.58491L496.578 12.1791C497.067 12.7431 496.788 13.6249 496.064 13.8049L489.436 15.4508C489.357 15.4704 489.276 15.4802 489.195 15.4802H483.637C483.579 15.4802 483.524 15.4848 483.467 15.4949C478.517 16.3662 467.895 18.489 464.327 20.1346C460.801 21.7609 462.761 23.5205 464.249 24.2352C464.301 24.2602 464.351 24.2883 464.398 24.3212L468.652 27.264C468.758 27.3371 468.877 27.3892 469.002 27.4173L480.097 29.9045C480.26 29.9412 480.431 29.9361 480.592 29.8896L489.317 27.3747L500.276 25.4093C500.631 25.3456 500.993 25.4784 501.223 25.7567L504.467 29.6832C504.615 29.8625 504.696 30.0877 504.696 30.3201V36.3321C504.696 36.5595 504.618 36.7802 504.476 36.9576L497.867 45.2009C497.725 45.3784 497.647 45.599 497.647 45.8264V56.153C497.647 56.2735 497.625 56.393 497.583 56.5058L493.226 68.0592C493.184 68.1719 493.162 68.2915 493.162 68.412V81.846C493.162 82.0707 493.237 82.2888 493.377 82.4652L497.462 87.6462C497.583 87.7997 497.744 87.9136 497.93 87.976C501.667 89.2354 509.105 92.0708 511.103 94.0873C513.11 96.1119 518.145 94.9991 520.561 94.1428C520.664 94.1062 520.758 94.0523 520.844 93.9836L528.288 87.9756C528.365 87.9132 528.433 87.8397 528.488 87.7574L532.249 82.1928L536.009 77.1345C536.065 77.0594 536.131 76.9925 536.206 76.9358L547.627 68.2297L555.078 63.7199C555.234 63.6253 555.413 63.5754 555.596 63.5754H568.521C568.686 63.5754 568.849 63.5343 568.995 63.456L578.244 58.4794C578.337 58.4293 578.438 58.3943 578.541 58.3757L589.831 56.3509C589.889 56.3405 589.948 56.3352 590.007 56.3352H604.344C604.547 56.3352 604.746 56.2733 604.913 56.1576L609.063 53.2867C609.115 53.2505 609.171 53.2194 609.229 53.1938L616.121 50.1601C616.167 50.1397 616.215 50.1228 616.264 50.1096L625.062 47.7428C625.498 47.6253 625.802 47.2294 625.802 46.7771V40.7815C625.802 40.4792 625.938 40.1932 626.174 40.0033L632.734 34.7083C632.811 34.6464 632.897 34.5961 632.988 34.5592L641.976 30.9323C642.825 30.5898 642.805 29.3814 641.946 29.0661L639.665 28.2292C638.82 27.9192 638.782 26.7378 639.606 26.3751L643.331 24.7355C643.887 24.4906 644.098 23.8102 643.778 23.2936L641.139 19.033C640.821 18.5203 641.026 17.8451 641.575 17.5958L650.792 13.4116L663.827 7.56684C664.811 7.12569 664.497 5.65437 663.418 5.65437H650.792L632.85 3.58576C626.443 2.72384 612.73 1 609.142 1C605.553 1 604.656 1 604.656 1C604.656 1 604.656 1 604.656 1C598.676 1 586.202 1 584.152 1C582.125 1 573.254 2.68416 568.923 3.55548C568.822 3.57594 568.727 3.61151 568.636 3.66208L560.67 8.1131C560.521 8.19639 560.353 8.24012 560.183 8.24012H547.711C547.655 8.24012 547.6 8.23549 547.545 8.22628L532.249 5.65437L518.224 3.59635C518.176 3.5893 518.128 3.58576 518.079 3.58576H436.774L420.755 5.65437L405.694 8.18672C405.487 8.22144 405.297 8.32014 405.149 8.46889L400.54 13.1193C400.354 13.3066 400.25 13.5596 400.25 13.8233V23.3623C400.25 23.8779 399.858 24.3091 399.344 24.3578L389.599 25.2831C389.44 25.2982 389.279 25.2748 389.131 25.2149L383.36 22.8863C383.098 22.7806 382.804 22.7905 382.55 22.9136L379.952 24.1719C379.816 24.2376 379.67 24.2718 379.519 24.2718C375.384 24.2718 367.295 24.2718 366.289 24.2718C365.264 24.2718 360.308 24.2718 357.959 24.2718L347.618 25.1992C346.996 25.2549 346.577 25.8594 346.743 26.4606L347.555 29.4089C347.649 29.7507 347.917 30.017 348.259 30.1091L349.884 30.5463C350.871 30.8118 350.871 32.2121 349.884 32.4776L349.756 32.5119C349.672 32.5347 349.584 32.5463 349.497 32.5463H344.862C344.31 32.5463 343.862 32.994 343.862 33.5463V36.5603C343.862 37.1704 343.32 37.6383 342.717 37.5497L337.03 36.7153C336.887 36.6943 336.742 36.7045 336.603 36.7451L330.483 38.5412C330.057 38.6662 329.765 39.0569 329.765 39.5008V41.7198C329.765 42.1162 329.999 42.4753 330.362 42.635L336.621 45.3903C336.748 45.4462 336.885 45.4751 337.024 45.4751H341.8C342.635 45.4751 343.102 46.4383 342.585 47.0942L339.74 50.702C339.516 50.987 339.154 51.1279 338.796 51.07L333.28 50.1797C333.077 50.147 332.87 50.1774 332.685 50.2669L326.561 53.2323L317.822 58.2702C317.67 58.3578 317.498 58.4038 317.323 58.4038H309.696C309.418 58.4038 309.153 58.2882 308.963 58.0846L308.37 57.4455C307.881 56.9198 308.089 56.0658 308.764 55.8235L318.872 52.198L322.33 50.603C322.876 50.3514 323.078 49.6789 322.762 49.1682L322.342 48.4903C322.174 48.2202 321.889 48.0457 321.572 48.0202L316.912 47.6441C316.274 47.5926 315.848 46.963 316.037 46.3514L316.25 45.6637C316.289 45.5391 316.351 45.4233 316.434 45.3228L317.882 43.5708C318.345 43.0097 318.073 42.1573 317.37 41.9683L311.182 40.3035L303.648 37.7699C303.546 37.7354 303.438 37.7178 303.33 37.7178H294.209C293.996 37.7178 293.789 37.6499 293.617 37.524L287.097 32.74C286.926 32.6141 286.718 32.5463 286.506 32.5463H277.354C277.266 32.5463 277.179 32.5347 277.094 32.5119L267.738 29.9948C267.653 29.972 267.565 29.9605 267.478 29.9605H262.811C262.598 29.9605 262.392 30.0278 262.22 30.1534C259.783 31.9358 255.142 35.2503 254.154 35.6492C252.872 36.1663 246.464 37.7178 243.901 37.7178C242.201 37.7178 240.971 39.8509 240.357 41.4642C240.166 41.9645 240.458 42.5018 240.968 42.6663L246.315 44.3924C246.414 44.4244 246.517 44.4407 246.622 44.4407H253.996C254.101 44.4407 254.204 44.4244 254.303 44.3924L260.561 42.3721L265.607 40.8913C266.413 40.6548 267.134 41.4565 266.813 42.2325L266.328 43.4064L263.765 48.0608L260.855 52.759C260.672 53.0533 260.351 53.2323 260.005 53.2323H254.286C254.198 53.2323 254.111 53.2208 254.026 53.198L246.548 51.1863C246.492 51.1713 246.435 51.1611 246.378 51.156L234.93 50.1294L224.174 48.0868C224.083 48.0696 223.991 48.065 223.898 48.0733L212.503 49.0951C209.94 49.0951 204.43 49.302 202.892 50.1294C201.354 50.9569 194.562 51.8533 191.358 52.198L179.299 53.2225C179.222 53.229 179.145 53.2267 179.069 53.2155L172.287 52.2204C172.186 52.2056 172.088 52.1754 171.996 52.131L165.934 49.1951C165.798 49.1293 165.649 49.0951 165.498 49.0951H155.669C155.541 49.0951 155.414 49.0704 155.295 49.0225L150.529 47.0992C150.41 47.0512 150.283 47.0265 150.154 47.0265H130.261C129.994 47.0265 129.738 46.9199 129.55 46.7305L127.574 44.7368C127.386 44.5473 127.131 44.4407 126.864 44.4407H111.425C111.317 44.4407 111.209 44.4584 111.106 44.4929L103.727 46.9743C103.624 47.0089 103.517 47.0265 103.408 47.0265H95.494C95.3286 47.0265 95.1658 47.0675 95.0202 47.1459L91.4683 49.057C91.4211 49.0824 91.372 49.1039 91.3214 49.1214L82.5086 52.1697C82.454 52.1885 82.398 52.2026 82.341 52.2118L76.0981 53.2196C76.0454 53.2281 75.9921 53.2323 75.9387 53.2323H63.8239C63.4439 53.2323 63.0967 53.4477 62.9279 53.7883L62.0913 55.4763C61.9822 55.6964 61.9579 55.949 62.0232 56.1858L63.1676 60.3421C63.1914 60.4286 63.2034 60.5179 63.2034 60.6076V64.24C63.2034 64.9273 62.5261 65.4097 61.8765 65.185L54.4478 62.6155C54.3062 62.5665 54.1553 62.55 54.0064 62.5671L45.2618 63.5754L36.7521 65.5376C36.4602 65.6049 36.2139 65.7996 36.0808 66.068L34.3062 69.6487C34.0143 70.2376 34.3601 70.9431 35.0044 71.073L45.5892 73.2087C46.631 73.4189 46.4778 74.9527 45.415 74.9527V74.9527C45.3136 74.9527 45.213 74.9702 45.1176 75.0044L33.7279 79.0899L22.3534 81.6399C22.2478 81.6636 22.1468 81.7042 22.0543 81.7602L14.6433 86.2462C14.5515 86.3017 14.4514 86.3421 14.3468 86.3659L2.70168 89.0092C1.53901 89.2731 1.73078 90.9844 2.92304 90.9844H10.5991C11.7929 90.9844 11.9828 92.699 10.8179 92.9602L9.90472 93.1649C9.12852 93.3389 8.85637 94.3056 9.42777 94.859L11.01 96.3914C11.1966 96.5721 11.4461 96.6731 11.7057 96.6731H21.7656C22.0392 96.6731 22.3008 96.7851 22.4895 96.9831L28.3062 103.086C28.4949 103.284 28.7565 103.396 29.0301 103.396H40.2414C40.5757 103.396 40.8878 103.229 41.0733 102.951L45.075 96.9531C45.1962 96.7714 45.3735 96.6344 45.5799 96.563L54.0738 93.6251C54.1789 93.5887 54.2894 93.5702 54.4007 93.5702H104.88C105.257 93.5702 105.601 93.7792 105.77 94.1156C107.773 98.0806 111.413 105.437 111.902 107.016C112.409 108.652 115.046 117.164 116.344 121.355C116.373 121.451 116.388 121.547 116.388 121.648V137.311C116.388 137.454 116.357 137.596 116.297 137.726L111.902 147.354L105.608 159.546C105.533 159.69 105.425 159.814 105.291 159.907L91.7349 169.356C91.5187 169.507 91.3707 169.737 91.3232 169.996L88.8508 183.465C88.8398 183.525 88.8343 183.585 88.8343 183.646V198.259C88.8343 198.45 88.8892 198.638 88.9924 198.799L98.3976 213.474C98.4297 213.524 98.4663 213.571 98.507 213.615L102.023 217.399C102.195 217.584 102.291 217.827 102.291 218.08V229.784C102.291 229.989 102.353 230.188 102.47 230.356L108.058 238.373L111.856 243.992C111.887 244.038 111.914 244.087 111.937 244.137L116.388 253.887L120.805 265.092C120.85 265.206 120.915 265.311 120.998 265.401L131.658 277.041C131.73 277.119 131.813 277.186 131.906 277.237L146.504 285.433L158.599 292.626C158.652 292.658 158.708 292.684 158.766 292.706L172.648 297.798C172.733 297.829 172.813 297.872 172.886 297.924L178.222 301.753C178.428 301.9 178.682 301.964 178.933 301.932L193.434 300.059C194.032 299.982 194.562 300.448 194.562 301.051V301.476C194.562 301.794 194.713 302.094 194.97 302.282L201.435 307.025C201.55 307.11 201.683 307.169 201.823 307.198L223.827 311.765C223.966 311.793 224.097 311.851 224.211 311.935L230.241 316.315C230.375 316.412 230.483 316.541 230.554 316.69L234.86 325.625C234.907 325.722 234.969 325.811 235.043 325.888L246.272 337.468C246.398 337.597 246.556 337.691 246.731 337.737L254.026 339.7C254.111 339.723 254.198 339.734 254.286 339.734H265.529C265.996 339.734 266.401 339.41 266.504 338.954L267.351 335.194C267.487 334.592 268.129 334.255 268.701 334.486L276.176 337.502C276.434 337.607 276.724 337.598 276.976 337.48L284.27 334.046M436.774 138.045L420.849 134.961C420.786 134.948 420.725 134.942 420.661 134.942C418.256 134.942 412.627 134.942 408.58 134.942C404.688 134.942 399.719 134.942 397.397 134.942C397.169 134.942 396.949 135.021 396.771 135.164L389.729 140.848C389.493 141.038 389.362 141.324 389.329 141.625C389.114 143.56 387.706 146.345 386.516 148.348C386.107 149.037 386.593 149.94 387.395 149.94H394.383C394.449 149.94 394.516 149.946 394.581 149.959L402.074 151.471C402.139 151.485 402.206 151.491 402.272 151.491H411.424C411.977 151.491 412.424 151.939 412.424 152.491V154.531C412.424 154.89 412.232 155.221 411.921 155.399L397.046 163.903L389.658 167.878C389.463 167.983 389.238 168.02 389.019 167.983L374.296 165.508C374.089 165.473 373.899 165.374 373.751 165.225L372.239 163.7C371.434 162.888 367.179 164.736 366.289 165.454V165.454C363.085 168.04 359.881 168.04 356.677 169.591C354.36 170.714 350.472 173.329 348.327 174.84C347.959 175.099 347.464 175.085 347.114 174.802L343.99 172.281C343.905 172.212 343.809 172.158 343.707 172.12L336.98 169.653C336.87 169.612 336.753 169.591 336.636 169.591H330.095C329.88 169.591 329.672 169.66 329.5 169.788L322.481 174.98C322.226 175.169 322.076 175.467 322.076 175.784V182.727C322.076 183.207 322.417 183.619 322.889 183.709L331.241 185.295C332.003 185.44 332.317 186.359 331.803 186.94L326.561 192.863L322.076 198.552L317.739 203.552C317.641 203.665 317.57 203.798 317.53 203.942L316.467 207.803C316.369 208.157 316.085 208.429 315.727 208.512L307.43 210.425C307.369 210.439 307.309 210.459 307.251 210.484L300.289 213.549C298.153 214.411 293.882 216.445 293.882 217.687C293.882 218.879 289.548 220.802 287.123 221.716C286.934 221.787 286.77 221.912 286.653 222.078L284.454 225.184C284.334 225.353 284.27 225.555 284.27 225.762V250.221C284.27 250.571 284.087 250.895 283.788 251.076L279.383 253.743C279.226 253.837 279.047 253.887 278.865 253.887H277.25C276.845 253.887 276.48 253.643 276.325 253.269L273.486 246.394C273.415 246.221 273.296 246.072 273.145 245.963L267.909 242.207C267.716 242.069 267.578 241.866 267.521 241.635L266.445 237.294C266.372 236.996 266.164 236.748 265.884 236.622L260.757 234.323C260.628 234.265 260.488 234.235 260.347 234.235H254.544C254.293 234.235 254.051 234.141 253.866 233.97L249.955 230.363C249.771 230.193 249.529 230.098 249.277 230.098H240.263C240.127 230.098 239.992 230.126 239.867 230.18L230.634 234.154C230.509 234.208 230.375 234.235 230.239 234.235H212.687C212.566 234.235 212.445 234.258 212.332 234.301L201.61 238.373L194.786 241.878C194.639 241.953 194.513 242.063 194.421 242.2C193.317 243.838 191.358 247.131 191.358 248.716C191.358 250.285 188.667 253.841 187.114 255.674C186.959 255.857 186.873 256.088 186.873 256.329V274.25C186.873 274.46 186.939 274.665 187.062 274.836L191.358 280.779L194.36 285.141C194.491 285.33 194.682 285.469 194.903 285.533L201.379 287.434C201.531 287.479 201.691 287.487 201.847 287.457L212.359 285.461C212.455 285.443 212.547 285.411 212.633 285.366L220.935 281.059C221.266 280.887 221.474 280.545 221.474 280.171V275.162C221.474 274.799 221.671 274.464 221.989 274.288L231.5 269.01C231.649 268.928 231.816 268.885 231.985 268.885H239.752C239.95 268.885 240.145 268.944 240.31 269.055L242.912 270.805C243.428 271.152 243.506 271.881 243.074 272.329L235.043 280.662C234.969 280.74 234.907 280.829 234.861 280.926L231.787 287.375C231.747 287.459 231.695 287.537 231.635 287.608C230.577 288.862 229.236 291.468 231.727 292.674C234.93 294.225 236.212 296.294 240.057 297.845C243.057 299.056 250.368 301.022 253.897 301.917C254.066 301.96 254.22 302.045 254.343 302.17C255.455 303.293 257.358 305.592 257.358 307.154C257.358 308.788 255.274 316.275 254.194 319.947C254.167 320.039 254.154 320.131 254.154 320.227V328.663C254.154 329.097 254.434 329.482 254.846 329.615L260.412 331.412C260.511 331.444 260.614 331.46 260.719 331.46H278.906C279.062 331.46 279.217 331.497 279.356 331.567L284.27 334.046M436.774 138.045L443.092 139.575C443.152 139.589 443.21 139.609 443.266 139.634L448.621 142.036C448.833 142.131 449.005 142.296 449.108 142.504L451.277 146.88C451.424 147.177 451.414 147.526 451.252 147.815L448.814 152.144C448.537 152.635 447.908 152.801 447.425 152.508L443.42 150.084C443.264 149.99 443.085 149.94 442.902 149.94H436.774L424.292 148.429C424.076 148.402 423.874 148.306 423.717 148.154L421.699 146.2C421.224 145.74 421.319 144.954 421.889 144.62L427.717 141.198C427.774 141.165 427.834 141.137 427.897 141.116L436.774 138.045ZM284.27 334.046L288.688 331.499C288.733 331.473 288.78 331.451 288.828 331.432L301.955 326.387C302.123 326.323 302.27 326.214 302.382 326.073L306.543 320.795C306.644 320.667 306.775 320.565 306.925 320.499L311.669 318.411C312.465 318.061 313.297 318.823 313.019 319.646L312.157 322.199C311.975 322.737 312.277 323.319 312.822 323.479L318.278 325.08C318.642 325.187 319.035 325.079 319.293 324.801L324.092 319.636C324.411 319.293 324.926 319.217 325.331 319.455L331.687 323.186L337.888 326.188C338.024 326.254 338.173 326.288 338.324 326.288H350.27L360.033 325.303C360.341 325.272 360.647 325.386 360.86 325.611L368.649 333.831C368.781 333.971 368.95 334.069 369.137 334.117C371.378 334.686 375.709 336.081 377.182 337.666C378.694 339.293 384.461 344.388 387.293 346.852C387.388 346.934 387.495 346.996 387.614 347.038L397.525 350.538C397.632 350.575 397.745 350.595 397.858 350.595H403.331C403.413 350.595 403.494 350.604 403.572 350.624L411.533 352.601C411.697 352.642 411.849 352.724 411.973 352.84L419.512 359.86C419.862 360.186 419.929 360.711 419.713 361.137C418.742 363.052 417.863 366.207 420.114 367.661C422.677 369.315 427.589 375.245 429.725 378.004C430.793 379.21 433.57 381.727 436.133 382.141C438.653 382.548 450.053 382.321 455.713 382.15C455.901 382.144 456.083 382.191 456.245 382.287C458.679 383.719 463.337 386.513 464.327 387.312C465.345 388.134 474.862 390.381 479.599 391.426C479.671 391.442 479.738 391.465 479.805 391.497C482.402 392.723 487.53 395.287 488.036 396.104C488.676 397.138 496.366 399.207 497.647 400.758C498.567 401.872 502.997 403.347 505.749 404.136C506.242 404.278 506.555 404.764 506.473 405.27L503.456 423.772C503.429 423.941 503.358 424.1 503.251 424.234L497.647 431.27L493.86 435.346C493.822 435.387 493.787 435.431 493.756 435.478L488.199 443.949C488.093 444.112 488.036 444.302 488.036 444.497C488.036 447.176 488.036 452.194 488.036 452.991C488.036 454.025 488.036 459.714 488.036 462.299C488.036 464.885 486.754 472.125 486.113 473.16C485.601 473.987 481.628 478.676 479.706 480.917C477.57 482.813 473.042 486.709 472.016 487.123C471.002 487.532 461.124 491.012 456.156 492.755C456.049 492.793 455.952 492.848 455.863 492.92L451.671 496.303C451.566 496.388 451.479 496.493 451.416 496.612L443.939 510.692C443.862 510.836 443.822 510.997 443.822 511.161V518.071C443.822 518.439 443.62 518.778 443.296 518.952L438.582 521.489C438.257 521.663 438.055 522.001 438.055 522.369V529.525C438.055 529.852 437.896 530.158 437.629 530.345L428.444 536.769L420.278 543.36C420.17 543.447 420.081 543.556 420.017 543.679L416.944 549.632C416.921 549.676 416.895 549.718 416.866 549.759L412.559 555.718C412.47 555.84 412.412 555.981 412.379 556.128C412.083 557.432 410.995 560.033 408.58 561.592C405.376 563.661 404.094 566.247 400.891 567.798C397.687 569.35 394.483 571.936 392.561 572.97C391.042 573.787 383.153 581.392 379.253 585.235C379.153 585.333 379.078 585.449 379.027 585.58L375.377 594.907C375.301 595.102 375.288 595.317 375.34 595.52L379.104 610.205L382.89 621.407C382.929 621.523 382.989 621.63 383.066 621.724L389.208 629.159C389.306 629.278 389.43 629.372 389.57 629.435L400.891 634.511L412.424 638.131L415.496 639.164C416.527 639.511 416.342 641.021 415.258 641.109L407.383 641.744C407.327 641.749 407.272 641.749 407.216 641.744C403.336 641.397 395.105 640.717 392.561 640.717C389.997 640.717 375.26 634.166 368.211 630.891C363.512 628.65 353.73 623.651 352.192 621.582C350.27 618.996 346.425 616.411 342.58 610.205C338.736 603.999 331.687 587.967 331.687 585.381C331.687 583.326 330.422 574.975 329.777 570.978C329.769 570.926 329.765 570.877 329.765 570.823C329.765 565.279 329.765 554.036 329.765 552.801C329.765 551.249 331.687 541.941 331.687 539.355C331.687 537.298 330.42 528.25 329.775 523.912C329.768 523.863 329.765 523.816 329.765 523.766V499.102C329.765 499.046 329.76 498.989 329.751 498.934L327.202 484.02L324.683 471.317C324.654 471.168 324.591 471.028 324.5 470.907L317.715 461.947C317.633 461.838 317.529 461.748 317.41 461.68L304.871 454.596C304.807 454.56 304.747 454.517 304.693 454.468L293.882 444.716L279.214 428.76C279.167 428.71 279.126 428.655 279.091 428.596L270.89 414.849C270.839 414.764 270.777 414.688 270.703 414.621L260.774 405.606C260.635 405.48 260.534 405.317 260.484 405.136L257.473 394.445C257.399 394.183 257.435 393.903 257.573 393.668L263.124 384.209L267.453 374.727C267.554 374.505 267.732 374.329 267.954 374.229L278.781 369.375C279.014 369.27 279.198 369.08 279.296 368.844L280.99 364.741C281.04 364.62 281.066 364.49 281.066 364.359V347.097C281.066 347.016 281.076 346.935 281.095 346.856L284.27 334.046ZM674.5 142.7L675.022 146.49C675.09 146.985 675.513 147.354 676.013 147.354H679.711C680.057 147.354 680.378 147.533 680.561 147.827L682.725 151.322C682.795 151.434 682.886 151.531 682.993 151.607L688.492 155.553C688.562 155.603 688.625 155.662 688.68 155.728L690.932 158.454C691.08 158.633 691.161 158.858 691.161 159.091V162.249C691.161 162.317 691.154 162.385 691.14 162.451L690.602 165.055C690.549 165.311 690.398 165.536 690.181 165.682L686.877 167.904C686.744 167.993 686.592 168.05 686.433 168.068L682.283 168.546C682.221 168.554 682.158 168.555 682.096 168.55L675.213 168.045C675.165 168.042 675.118 168.035 675.071 168.025L668.093 166.489L662.967 165.454L660.025 164.505C659.853 164.449 659.67 164.441 659.494 164.482L655.876 165.316C655.509 165.401 655.22 165.685 655.13 166.05L654.736 167.639C654.672 167.896 654.509 168.117 654.283 168.254L652.556 169.3C652.256 169.481 652.073 169.805 652.073 170.155V183.962C652.073 184.345 651.854 184.695 651.509 184.862L649.164 185.998C648.973 186.09 648.816 186.241 648.716 186.429L647.244 189.202C647.063 189.543 647.094 189.958 647.324 190.268L648.672 192.081C648.8 192.253 648.87 192.462 648.87 192.677V194.601C648.87 194.816 648.8 195.025 648.672 195.198L647.145 197.252C647.017 197.425 646.941 197.634 646.973 197.847C647.08 198.571 647.55 199.586 648.87 199.586C650.368 199.586 654.83 198.931 657.032 198.579C657.144 198.561 657.256 198.562 657.367 198.582L662.368 199.479C662.736 199.545 663.036 199.81 663.147 200.167L663.389 200.951C663.519 201.369 663.906 201.655 664.344 201.655H670.656L678.234 200.635C678.308 200.626 678.38 200.607 678.45 200.582L686.398 197.621C686.579 197.554 686.736 197.435 686.852 197.28L690.446 192.446C690.495 192.38 690.536 192.308 690.567 192.231L692.411 187.767C692.432 187.717 692.456 187.669 692.485 187.622L695.474 182.798C695.586 182.618 695.752 182.477 695.949 182.398L702.054 179.934L708.184 177.956C708.365 177.897 708.526 177.788 708.647 177.641L712.17 173.377C712.26 173.268 712.325 173.141 712.363 173.005L713.385 169.292C713.505 168.858 713.899 168.557 714.349 168.557H720.504C720.592 168.557 720.679 168.569 720.764 168.591L724.221 169.522C724.391 169.567 724.57 169.567 724.74 169.522L728.121 168.612C728.256 168.576 728.381 168.512 728.49 168.425L732.054 165.548C732.131 165.486 732.216 165.435 732.308 165.399L735.751 164.009C735.923 163.94 736.112 163.92 736.295 163.951L744.442 165.36C744.78 165.419 745.065 165.647 745.196 165.964L748.02 172.802C748.128 173.063 748.341 173.266 748.607 173.361L753.956 175.28L761.443 178.805C761.576 178.868 761.722 178.898 761.869 178.907C762.57 178.95 763.749 179.193 764.209 179.934C764.721 180.762 767.84 182.693 769.335 183.555C770.616 184.244 773.051 185.83 772.539 186.657C772.048 187.449 772.301 189.25 772.51 190.159C772.529 190.238 772.539 190.319 772.539 190.4V191.55C772.539 192.016 772.86 192.42 773.314 192.525L776.288 193.211C776.723 193.311 777.173 193.11 777.388 192.719L779.463 188.951C779.544 188.804 779.587 188.638 779.587 188.469V186.106C779.587 185.554 780.035 185.106 780.587 185.106H783.3C783.387 185.106 783.475 185.094 783.559 185.072L784.142 184.915C784.762 184.748 785.067 184.048 784.765 183.48L783.636 181.353C783.506 181.108 783.28 180.928 783.012 180.856L779.587 179.934L774.461 177.866L769.335 175.28L762.927 171.66L758.613 168.676C758.5 168.598 758.404 168.497 758.332 168.38L756.571 165.537C756.537 165.482 756.497 165.43 756.453 165.383L754.936 163.75C754.722 163.521 754.629 163.204 754.684 162.895L755.133 160.358C755.197 159.994 755.458 159.694 755.81 159.581L758.097 158.843C758.319 158.771 758.561 158.779 758.778 158.867L768.583 162.824C768.657 162.853 768.727 162.892 768.792 162.938L774.393 166.957C774.438 166.989 774.481 167.026 774.52 167.065L776.897 169.463C776.981 169.548 777.08 169.617 777.188 169.667L781.437 171.627C781.485 171.649 781.532 171.675 781.576 171.705L785.354 174.246L789.539 177.623C789.732 177.779 789.861 178.002 789.899 178.248L790.449 181.802C790.47 181.935 790.517 182.062 790.587 182.176L792.795 185.739C792.952 185.993 793.215 186.163 793.511 186.203L796.888 186.657H798.212C799.117 186.657 799.557 187.765 798.897 188.386L797.327 189.865C797.057 190.119 796.95 190.501 797.048 190.858L798.052 194.504C798.127 194.777 798.313 195.004 798.566 195.132L803.085 197.411C803.223 197.481 803.344 197.583 803.437 197.707L804.828 199.579C805.065 199.897 805.468 200.046 805.855 199.957L809.298 199.163C809.557 199.103 809.782 198.942 809.923 198.715L811.973 195.405C812.156 195.111 812.477 194.932 812.823 194.932H813.514C814.33 194.932 814.802 194.007 814.324 193.346L811.177 188.991C811.052 188.819 810.876 188.691 810.673 188.626L808.013 187.767C807.861 187.717 807.722 187.632 807.61 187.519L806.715 186.616C806.119 186.015 806.493 184.992 807.336 184.916L810.898 184.597C810.956 184.591 811.013 184.581 811.069 184.566L812.599 184.155C812.8 184.101 812.978 183.986 813.11 183.826L815.17 181.332C815.36 181.102 815.643 180.969 815.941 180.969H828.112C828.227 180.969 828.341 180.949 828.45 180.91L832.745 179.369C833.388 179.139 833.615 178.345 833.192 177.809L829.909 173.645C829.696 173.375 829.637 173.015 829.751 172.692L830.799 169.733C830.832 169.639 830.879 169.551 830.939 169.471L832.574 167.271C832.702 167.099 832.771 166.89 832.771 166.675V163.228C832.771 162.996 832.852 162.77 833 162.591L835.173 159.961C835.279 159.833 835.415 159.733 835.57 159.671L837.594 158.854C837.791 158.774 837.958 158.634 838.07 158.453L840.308 154.841C840.407 154.68 840.551 154.55 840.722 154.468L843.352 153.194C843.554 153.096 843.784 153.069 844.003 153.117L850.607 154.571C850.677 154.586 850.749 154.594 850.822 154.594H853.564C853.792 154.594 854.014 154.672 854.192 154.816L855.094 155.544C855.702 156.035 855.538 157 854.804 157.264L853.049 157.893C852.202 158.197 852.156 159.379 852.978 159.747L855.889 161.052C856.248 161.213 856.48 161.571 856.48 161.965V162.646C856.48 163.425 857.331 163.905 857.998 163.501L858.962 162.917C859.016 162.885 859.072 162.857 859.131 162.836L865.303 160.537C866.109 160.236 866.185 159.126 865.428 158.719L862.132 156.946C861.808 156.771 861.606 156.433 861.606 156.065V155.412C861.606 154.936 861.942 154.526 862.408 154.432L869.295 153.043L872.236 152.093C872.408 152.038 872.592 152.03 872.768 152.07L876.209 152.864C876.663 152.968 876.985 153.373 876.985 153.838V155.11C876.985 155.435 876.827 155.74 876.561 155.927L872.77 158.605C872.284 158.948 872.203 159.638 872.598 160.084L874.906 162.692C875.009 162.808 875.137 162.899 875.281 162.957L878.769 164.364C878.86 164.401 878.946 164.451 879.023 164.513L881.318 166.366C881.418 166.447 881.533 166.508 881.657 166.545L886.596 168.04L890.846 169.51C891.001 169.563 891.14 169.654 891.251 169.774L893.004 171.66L895.125 173.8C895.395 174.073 895.486 174.476 895.357 174.838L894.414 177.502C894.331 177.736 894.164 177.931 893.945 178.049L888.81 180.812C888.621 180.914 888.404 180.952 888.191 180.921L881.588 179.952C881.51 179.94 881.433 179.919 881.359 179.89L877.625 178.383L871.858 176.832L865.601 174.307C865.501 174.266 865.396 174.242 865.289 174.236L857.508 173.753C857.259 173.737 857.013 173.816 856.818 173.973L855.271 175.222C855.223 175.261 855.171 175.295 855.116 175.324L851.467 177.288C851.392 177.328 851.312 177.359 851.229 177.379L844.946 178.9L839.82 179.417H835.548C835.407 179.417 835.268 179.447 835.139 179.505L829.567 182.003L824.713 183.962C824.536 184.034 824.382 184.155 824.272 184.311L822.223 187.205C822.011 187.505 821.98 187.897 822.143 188.227L823.062 190.081C823.126 190.211 823.218 190.325 823.33 190.415L826.632 193.08C826.868 193.27 827.004 193.556 827.004 193.858V196.954C827.004 197.304 827.187 197.628 827.487 197.81L829.567 199.069L833.821 201.521C833.973 201.609 834.145 201.655 834.32 201.655H839.7C839.78 201.655 839.859 201.645 839.936 201.627L846.227 200.103L850.427 199.135C850.614 199.092 850.809 199.104 850.989 199.168L856.316 201.079C856.424 201.118 856.539 201.138 856.654 201.138H861.606L866.091 201.655L871.659 202.553C872.143 202.632 872.499 203.05 872.499 203.541V208.813C872.499 208.868 872.495 208.922 872.486 208.976L871.233 216.557C871.223 216.62 871.206 216.683 871.184 216.743L869.295 221.824L867.577 225.06C867.447 225.305 867.221 225.485 866.953 225.557L863.717 226.427C863.592 226.461 863.462 226.47 863.334 226.454L855.198 225.444H845.299C845.071 225.444 844.849 225.522 844.671 225.666L843.78 226.385C843.703 226.447 843.618 226.497 843.526 226.534L840.13 227.904C839.929 227.986 839.706 227.999 839.496 227.943L834.053 226.478L828.385 224.445C828.319 224.422 828.251 224.405 828.181 224.395L820.676 223.386C820.623 223.379 820.571 223.367 820.52 223.352L815.47 221.824L811.156 220.829C811.043 220.803 810.935 220.757 810.838 220.695L807.964 218.839C807.843 218.761 807.708 218.71 807.566 218.689L801.001 217.726C800.825 217.7 800.646 217.722 800.481 217.788L798.17 218.721L794.606 220.638C794.423 220.737 794.275 220.889 794.183 221.075L793.147 223.165C793.079 223.303 793.043 223.455 793.043 223.609V229.862C793.043 230.509 792.437 230.986 791.808 230.833L786.786 229.617C786.686 229.593 786.591 229.554 786.503 229.501L781.646 226.561C781.556 226.506 781.457 226.466 781.353 226.442L772.628 224.43C772.569 224.416 772.51 224.397 772.454 224.373L764.209 220.789L754.098 217.729C754.004 217.701 753.906 217.687 753.808 217.687H745.985C745.433 217.687 744.985 217.239 744.985 216.687V213.374C744.985 213.152 745.059 212.937 745.195 212.762L747.98 209.165C748.116 208.99 748.189 208.775 748.189 208.553V202.923C748.189 202.769 748.225 202.617 748.293 202.479L749.164 200.722C749.349 200.35 749.284 199.902 749.001 199.597L747.683 198.179C747.594 198.084 747.488 198.007 747.369 197.952L743.368 196.107C743.17 196.016 742.948 195.992 742.735 196.038L736.015 197.518L729.681 198.029C729.632 198.033 729.582 198.033 729.533 198.03L721.918 197.518L713.588 198.035H707.312C707.224 198.035 707.137 198.046 707.052 198.069L697.69 200.588C697.609 200.61 697.531 200.641 697.458 200.683L691.161 204.241L684.112 207.344M684.112 207.344C682.83 207.344 679.883 207.344 678.345 207.344M684.112 207.344H678.345M678.345 207.344C676.89 207.344 671.494 206.726 668.566 206.368C668.266 206.331 668 206.16 667.841 205.902L667.277 204.992C667.011 204.563 666.467 204.4 666.008 204.611L662.624 206.172C662.43 206.261 662.27 206.41 662.167 206.597L659.808 210.881C659.778 210.936 659.743 210.988 659.703 211.036L657.449 213.765C657.289 213.959 657.061 214.084 656.812 214.123C655.418 214.342 653.005 214.866 652.073 215.618C651.089 216.412 647.664 219.495 645.88 221.113C645.739 221.24 645.639 221.404 645.589 221.586L644.42 225.831C644.396 225.917 644.384 226.006 644.384 226.096V231.576C644.384 231.94 644.186 232.276 643.866 232.452L630.387 239.869C630.321 239.906 630.259 239.95 630.202 240.001L624.617 245.009C624.553 245.066 624.496 245.132 624.449 245.205L618.823 253.781C618.777 253.851 618.722 253.916 618.659 253.973L608.627 263.082C608.543 263.157 608.473 263.246 608.42 263.345L604.088 271.336C604.04 271.425 604.006 271.521 603.986 271.62L602.142 281.049C602.11 281.211 602.119 281.379 602.168 281.537L604.015 287.502L605.861 296.44C605.911 296.679 605.871 296.928 605.75 297.139L602.093 303.534L599.81 307.219C599.635 307.501 599.612 307.853 599.749 308.156L602.063 313.294C602.083 313.338 602.1 313.383 602.113 313.429L603.904 319.693C603.976 319.943 604.141 320.155 604.366 320.285L608.433 322.629C608.478 322.655 608.521 322.685 608.562 322.718L614.069 327.162C614.199 327.268 614.301 327.404 614.365 327.559L616.749 333.33C616.803 333.461 616.884 333.579 616.988 333.676L624.398 340.653C624.479 340.73 624.572 340.792 624.674 340.838L630.133 343.286C630.235 343.331 630.329 343.393 630.41 343.47L634.061 346.908C634.108 346.952 634.158 346.991 634.213 347.026C636.164 348.254 640.034 350.813 640.54 351.629C641.052 352.456 644.171 355.421 645.666 356.8M645.666 356.8C646.734 356.8 649.51 356.8 652.073 356.8M645.666 356.8H652.073M652.073 356.8C654.637 356.8 658.268 355.421 659.763 354.732L666.44 351.792C666.678 351.688 666.948 351.68 667.192 351.771L674.972 354.669C675.084 354.71 675.202 354.732 675.321 354.732H680.119C680.218 354.732 680.315 354.717 680.409 354.689L690.52 351.629L702.054 346.975L707.918 345.081C708.255 344.973 708.624 345.05 708.889 345.285L714.697 350.442C714.81 350.542 714.899 350.667 714.957 350.808L717.177 356.182C717.331 356.556 717.696 356.8 718.101 356.8H728.151C728.267 356.8 728.381 356.781 728.489 356.742L733.564 354.921C733.892 354.804 734.258 354.865 734.529 355.085L739.526 359.117C739.739 359.289 739.872 359.54 739.895 359.813L741.735 382.093C741.764 382.444 741.607 382.783 741.321 382.988L737.082 386.029C736.545 386.415 736.523 387.205 737.037 387.62L739.859 389.898L747.464 396.548C747.52 396.596 747.571 396.651 747.614 396.711L753.861 405.282C753.924 405.369 753.973 405.465 754.005 405.567L759.035 421.296C759.066 421.394 759.082 421.497 759.082 421.6V429.037C759.082 429.146 759.1 429.253 759.135 429.357C759.79 431.308 761.005 435.119 761.005 435.925C761.005 436.752 757.587 444.889 755.879 448.853L752.197 456.282C752.092 456.494 752.065 456.737 752.122 456.967L753.924 464.24C753.946 464.325 753.978 464.407 754.02 464.484L767.287 488.448C767.369 488.596 767.412 488.763 767.412 488.932V498.911C767.412 498.981 767.42 499.052 767.435 499.121L769.918 510.643C769.956 510.819 770.04 510.981 770.163 511.113L777.665 519.186L782.582 524.147C782.718 524.284 782.812 524.459 782.851 524.648L784.694 533.574C784.707 533.635 784.725 533.695 784.749 533.753L787.841 541.24C787.891 541.361 787.917 541.491 787.917 541.622V542.688C787.917 543.158 788.244 543.564 788.702 543.665L794.711 544.988C794.878 545.024 795.052 545.018 795.215 544.968L799.95 543.535C800.044 543.507 800.142 543.492 800.24 543.492H815.364C815.435 543.492 815.505 543.485 815.574 543.47L824.918 541.459C825.027 541.436 825.13 541.394 825.225 541.337L830.208 538.321L838.538 531.598L848.791 521.772L855.655 516.736C855.776 516.647 855.876 516.531 855.946 516.398L859.567 509.58C859.644 509.436 859.684 509.275 859.684 509.111V501.195C859.684 500.812 859.903 500.462 860.248 500.295L869.295 495.914L874.4 494.083C874.797 493.941 875.062 493.564 875.062 493.142V478.232C875.062 477.965 874.955 477.708 874.764 477.52L870.427 473.242C869.903 472.724 870.098 471.837 870.792 471.588L880.606 468.068C880.753 468.015 880.885 467.929 880.993 467.817L887.103 461.405C887.191 461.313 887.297 461.238 887.414 461.185L897.227 456.73C897.398 456.652 897.544 456.527 897.648 456.37L902.45 449.104C902.558 448.941 902.616 448.749 902.616 448.553V436.065C902.616 435.972 902.603 435.879 902.577 435.79L900.693 429.202L897.565 421.628C897.515 421.507 897.489 421.377 897.489 421.246V407.115C897.489 407.015 897.504 406.915 897.534 406.82L900.693 396.621L902.539 391.657C902.589 391.52 902.669 391.397 902.773 391.294L922.411 371.866C922.456 371.82 922.506 371.78 922.56 371.744L937.115 362.04C937.183 361.995 937.245 361.941 937.3 361.881L944.181 354.307C944.237 354.246 944.285 354.177 944.324 354.104L950.033 343.354L955.159 331.977L960.161 322.894C960.242 322.746 960.285 322.58 960.285 322.411V319.753C960.285 319.121 959.707 318.648 959.087 318.773L950.033 320.6L933.491 324.708C933.412 324.727 933.331 324.737 933.25 324.737H924.674C924.496 324.737 924.321 324.69 924.167 324.599L918.103 321.04C917.673 320.788 917.495 320.257 917.685 319.796L918.377 318.121C918.533 317.744 918.444 317.31 918.153 317.025L909.664 308.705L900.857 301.597C900.749 301.51 900.66 301.401 900.597 301.278L897.489 295.259L891.722 284.399L885.412 271.158C885.348 271.023 885.254 270.904 885.138 270.81L875.195 262.786C875.107 262.715 875.032 262.63 874.973 262.534L869.368 253.488C869.32 253.41 869.282 253.325 869.257 253.236L867.439 246.877C867.396 246.726 867.317 246.587 867.21 246.472L863.58 242.565C863.545 242.528 863.514 242.489 863.486 242.448L859.361 236.395C858.743 235.488 859.827 234.391 860.741 234.999L866.026 238.512C866.645 238.923 867.481 238.539 867.572 237.802L867.872 235.381C868.012 234.25 869.633 234.197 869.847 235.317L871.17 242.258C871.201 242.423 871.274 242.578 871.381 242.708L880.188 253.37L889.052 262.567C889.123 262.641 889.182 262.726 889.228 262.817L894.285 273.022L900.65 284.322C900.679 284.373 900.712 284.422 900.75 284.468L907.03 292.071C907.077 292.128 907.118 292.19 907.151 292.256L918.357 314.363C918.527 314.699 918.872 314.911 919.249 314.911H926.771C926.899 314.911 927.026 314.886 927.145 314.838L937.217 310.774L953.148 303.574C953.207 303.547 953.268 303.526 953.331 303.512L968.393 299.966C968.539 299.932 968.676 299.865 968.792 299.771L978.227 292.156L991.042 280.779L999.397 271.627C999.746 271.246 999.746 270.661 999.397 270.279L991.139 261.234C991.075 261.163 991.001 261.102 990.919 261.053L978.827 253.733C978.466 253.515 978.008 253.546 977.681 253.811L968.89 260.906C968.712 261.049 968.49 261.127 968.262 261.127H960.828C960.489 261.127 960.174 260.956 959.989 260.672L953.532 250.723C953.348 250.439 953.032 250.267 952.693 250.267H948.587C948.286 250.267 948 250.131 947.81 249.897L937.812 237.556C937.478 237.144 937.524 236.542 937.917 236.186L942.057 232.426C942.241 232.259 942.481 232.167 942.73 232.167H947.593C947.918 232.167 948.222 232.324 948.409 232.589L953.191 239.343C953.221 239.386 953.255 239.426 953.291 239.463L960.041 246.397C960.199 246.559 960.407 246.663 960.632 246.691L972.46 248.199H981.103C981.316 248.199 981.523 248.266 981.695 248.392L988.215 253.176C988.387 253.302 988.594 253.37 988.807 253.37H997.877C998.018 253.37 998.157 253.4 998.286 253.458L1003.55 255.82C1003.75 255.908 1003.97 255.93 1004.18 255.883L1015.1 253.434C1015.29 253.392 1015.49 253.405 1015.67 253.471L1022.27 255.895C1022.38 255.935 1022.5 255.956 1022.62 255.956H1032.41C1032.59 255.956 1032.78 256.007 1032.93 256.105L1043.38 262.555C1043.52 262.636 1043.63 262.747 1043.71 262.879L1048.64 270.831C1048.69 270.912 1048.75 270.985 1048.82 271.049L1054.36 276.021C1054.44 276.09 1054.53 276.146 1054.62 276.189L1059.48 278.367C1059.92 278.565 1060.44 278.417 1060.72 278.014L1064.05 273.086C1064.08 273.043 1064.11 273.003 1064.14 272.965L1064.77 272.288C1065.31 271.71 1066.27 271.953 1066.47 272.716L1068.54 280.655C1068.56 280.737 1068.58 280.822 1068.58 280.907V291.821C1068.58 292.038 1068.65 292.25 1068.78 292.424L1075.62 301.465L1081.98 310.702C1082.02 310.75 1082.04 310.801 1082.07 310.854L1086.48 320.529C1086.51 320.576 1086.53 320.622 1086.56 320.665L1091.64 328.357L1096.06 337.01C1096.1 337.102 1096.17 337.186 1096.24 337.259L1098.06 339.093C1098.42 339.457 1099 339.489 1099.39 339.167L1104.97 334.67C1105.05 334.599 1105.13 334.514 1105.19 334.418L1108.94 328.357L1112.68 320.81C1112.75 320.672 1112.79 320.52 1112.79 320.366V310.904C1112.79 310.818 1112.78 310.731 1112.76 310.648L1111.04 304.183C1110.93 303.79 1111.08 303.374 1111.4 303.129L1121.12 295.776L1135.22 283.365L1144.53 273.341C1144.72 273.137 1144.99 273.022 1145.26 273.022H1156.65C1156.88 273.022 1157.1 272.944 1157.28 272.8L1161.69 269.237C1161.96 269.018 1162.33 268.956 1162.66 269.074L1167.23 270.716C1167.63 270.858 1167.9 271.235 1167.9 271.657V275.615C1167.9 275.935 1168.05 276.236 1168.31 276.424L1174.3 280.779L1180.61 286.889C1180.68 286.953 1180.73 287.025 1180.78 287.104L1185.7 295.543C1185.79 295.696 1185.84 295.87 1185.84 296.047V299.373C1185.84 300.214 1186.81 300.679 1187.47 300.151L1192.75 295.886C1192.84 295.814 1192.94 295.757 1193.05 295.719L1196.46 294.541C1196.97 294.365 1197.52 294.623 1197.72 295.126L1206.27 317.323C1206.32 317.438 1206.34 317.56 1206.34 317.683V332.115C1206.34 332.359 1206.43 332.595 1206.59 332.778L1211 337.758C1211.61 338.448 1212.75 338.016 1212.75 337.096V324.384C1212.75 324.275 1212.77 324.167 1212.8 324.064L1216.29 313.732C1216.46 313.232 1216.99 312.949 1217.5 313.086L1222.25 314.364C1222.32 314.384 1222.4 314.412 1222.46 314.449L1233.7 320.494C1233.83 320.564 1233.94 320.661 1234.03 320.778L1239.66 328.357L1244.86 333.953C1245.19 334.306 1245.72 334.375 1246.13 334.115L1257.53 326.851C1257.58 326.821 1257.62 326.786 1257.67 326.748L1262.4 322.449C1262.61 322.259 1262.73 321.99 1262.73 321.708V309.071C1262.73 308.835 1262.65 308.608 1262.5 308.428C1259.21 304.541 1252.84 296.988 1251.84 295.776C1250.86 294.592 1243.97 287.663 1240.18 283.886C1239.87 283.575 1239.8 283.099 1240.01 282.711L1243.31 276.494C1243.44 276.258 1243.65 276.082 1243.91 276.005L1260.71 270.983C1260.77 270.963 1260.84 270.95 1260.91 270.944L1285 268.898C1285.1 268.889 1285.21 268.864 1285.3 268.824L1300.9 262.277C1301.08 262.202 1301.23 262.076 1301.34 261.915L1308.69 251.038C1308.81 250.873 1308.87 250.678 1308.87 250.478V230.946C1308.87 230.731 1308.8 230.522 1308.67 230.35L1299.32 217.777C1299.28 217.717 1299.22 217.662 1299.17 217.613L1288.71 208.677C1288.49 208.487 1288.36 208.209 1288.36 207.917V204.797C1288.36 204.451 1288.54 204.13 1288.83 203.947L1296.22 199.362C1296.51 199.18 1296.69 198.859 1296.69 198.513V195.932C1296.69 195.38 1296.24 194.932 1295.69 194.932H1277.69C1277.54 194.932 1277.4 194.899 1277.27 194.837L1271.85 192.287C1271.06 191.915 1271.09 190.782 1271.9 190.455L1276.84 188.461C1277.22 188.309 1277.47 187.942 1277.47 187.534V183.287C1277.47 182.835 1277.77 182.439 1278.21 182.321L1284.73 180.567C1285 180.494 1285.29 180.539 1285.53 180.693L1287.39 181.895C1287.9 182.225 1288 182.931 1287.61 183.391L1284.3 187.204C1284.04 187.501 1283.98 187.921 1284.15 188.278L1284.93 189.976C1285.07 190.283 1285.36 190.497 1285.69 190.546L1290.23 191.21C1290.64 191.271 1291.06 191.063 1291.25 190.689L1292.69 187.98C1292.79 187.793 1292.95 187.642 1293.14 187.549L1298.66 184.877C1299.02 184.702 1299.45 184.76 1299.75 185.025L1306.94 191.312L1310.5 194.66C1310.68 194.835 1310.93 194.932 1311.18 194.932H1316.2C1316.75 194.932 1317.2 195.38 1317.2 195.932V198.758C1317.2 198.961 1317.26 199.158 1317.37 199.325L1323.35 208.006C1323.51 208.243 1323.77 208.398 1324.05 208.432L1335.75 209.849C1336.16 209.898 1336.55 209.699 1336.75 209.347L1339.21 204.978C1339.45 204.552 1339.34 204.016 1338.96 203.709L1323.74 191.422C1323.65 191.349 1323.55 191.293 1323.44 191.255L1316.47 188.846C1315.7 188.58 1315.56 187.554 1316.22 187.084L1319.76 184.589L1322.81 182.948C1323.26 182.705 1323.45 182.16 1323.26 181.686L1320.33 174.593C1320.06 173.935 1320.54 173.212 1321.25 173.212H1328.57C1328.67 173.212 1328.78 173.194 1328.88 173.159L1336.13 170.723C1336.32 170.66 1336.48 170.542 1336.6 170.384L1344.62 159.928C1344.71 159.821 1344.77 159.698 1344.8 159.568L1348.48 145.19C1348.55 144.921 1348.51 144.635 1348.36 144.402L1339.62 130.805L1333.39 122.763C1333.28 122.611 1333.12 122.497 1332.94 122.433L1317.26 116.866C1317.22 116.85 1317.17 116.837 1317.13 116.828L1307.18 114.822C1307.03 114.79 1306.88 114.721 1306.75 114.62L1301.55 110.419C1301.31 110.229 1301.18 109.943 1301.18 109.641V101.72C1301.18 101.468 1301.27 101.225 1301.44 101.04L1306.65 95.4409C1306.84 95.2373 1307.1 95.1216 1307.38 95.1216H1357.09C1357.98 95.1216 1358.42 94.0489 1357.8 93.4176L1354.65 90.2425C1354.46 90.0552 1354.36 89.8022 1354.36 89.5385V86.9276C1354.36 86.5596 1354.16 86.2213 1353.83 86.0469L1352.09 85.1077C1351.17 84.6154 1351.52 83.2271 1352.56 83.2271H1363.02C1363.22 83.2271 1363.42 83.2902 1363.59 83.4077L1372.21 89.4389C1372.63 89.7302 1373.2 89.6628 1373.53 89.2822L1375.85 86.6673C1376.04 86.4528 1376.31 86.33 1376.6 86.33H1380.27C1380.82 86.33 1381.27 86.7778 1381.27 87.33V97.1894C1381.27 97.5142 1381.11 97.8188 1380.85 98.0062L1376.94 100.766C1376.5 101.078 1376.39 101.687 1376.69 102.138L1385.03 114.646C1385.09 114.731 1385.16 114.806 1385.24 114.869L1394.73 122.531L1402.95 128.659C1403.02 128.71 1403.09 128.771 1403.14 128.838L1407.62 134.458C1408.12 135.094 1409.14 134.891 1409.36 134.11L1412.63 122.665C1412.66 122.576 1412.67 122.483 1412.67 122.391V110.328C1412.67 110.19 1412.64 110.054 1412.59 109.927L1408.88 101.443C1408.84 101.366 1408.8 101.294 1408.75 101.228L1401.74 92.2773C1401.41 91.847 1401.48 91.2261 1401.9 90.8829L1402.73 90.2115C1402.94 90.0442 1403.21 89.9665 1403.47 89.9956L1417.16 91.5016H1421.28C1421.83 91.5016 1422.28 91.0538 1422.28 90.5016V86.9569C1422.28 86.5735 1422.5 86.2239 1422.85 86.0568L1428.57 83.2848C1428.65 83.2465 1428.73 83.2188 1428.82 83.2024L1439.54 81.1663C1439.57 81.1611 1439.6 81.1585 1439.62 81.1585V81.1585C1440.12 81.1585 1440.25 80.4657 1439.78 80.2952L1423.35 74.3074C1422.78 74.101 1422.53 73.4445 1422.8 72.9091L1425.21 68.2538C1425.38 67.9214 1425.72 67.7126 1426.1 67.7126H1439.39C1439.52 67.7126 1439.64 67.7372 1439.76 67.7852L1448.46 71.2963C1448.52 71.3205 1448.59 71.3388 1448.65 71.351L1458.72 73.2855C1459.69 73.473 1460.31 72.2765 1459.6 71.5851L1456.97 69.0351C1456.39 68.475 1456.68 67.4958 1457.47 67.3366L1457.82 67.2652C1458.76 67.0758 1458.92 65.8023 1458.06 65.3849L1454.43 63.6287C1454.36 63.5933 1454.28 63.5669 1454.2 63.5502L1439.68 60.4939C1439.62 60.4796 1439.55 60.4725 1439.48 60.4725H1432.03C1431.94 60.4725 1431.85 60.4599 1431.76 60.4352L1417.16 56.3352L1396.65 52.198L1372.94 50.1294L1352.55 48.5864C1352.48 48.5808 1352.4 48.5835 1352.33 48.5946L1335.24 51.1484C1335.17 51.1586 1335.1 51.1617 1335.03 51.1578L1317.36 50.1389C1317.25 50.1326 1317.14 50.1086 1317.04 50.0679L1304.56 45.0306C1304.44 44.9826 1304.31 44.9579 1304.19 44.9579H1284.67C1284.57 44.9579 1284.47 44.9742 1284.37 45.0063L1278.4 46.9327C1278.21 46.9938 1278.01 46.997 1277.81 46.9419L1260.24 41.8759C1260.19 41.862 1260.14 41.8517 1260.09 41.8452L1236.46 38.7521H1224.95C1224.55 38.7521 1224.18 38.9962 1224.03 39.3703L1222.62 42.7882C1222.46 43.1624 1222.1 43.4064 1221.69 43.4064H1200.1C1199.99 43.4064 1199.88 43.3891 1199.78 43.3549L1181.35 37.2006L1163.41 32.5463L1142.42 29.9801C1142.32 29.9671 1142.21 29.9713 1142.11 29.9925L1129.55 32.5265C1129.48 32.5396 1129.42 32.5463 1129.35 32.5463H1110.48C1110.31 32.5463 1110.15 32.5052 1110 32.4269L1095.01 24.3591C1094.9 24.3014 1094.79 24.2638 1094.66 24.2481L1075.11 21.7029C1075.03 21.6917 1074.94 21.6917 1074.85 21.7029L1055.12 24.2718L1039.1 26.3404L1005.89 34.0718C1005.82 34.089 1005.75 34.1146 1005.68 34.1482L991.042 41.3378L984.389 43.7787C984.136 43.8713 983.857 43.8583 983.614 43.7425L970.003 37.2512C969.932 37.2176 969.866 37.1758 969.805 37.1268L966.889 34.773C966.437 34.4082 965.77 34.5039 965.439 34.9811L957.26 46.7694C957.143 46.9368 957.081 47.1357 957.081 47.3395V54.5567C957.081 55.2012 956.48 55.6773 955.853 55.5303L937.382 51.2023C937.273 51.1768 937.16 51.1697 937.049 51.1814L922.479 52.7152H909.843C909.725 52.7152 909.607 52.7362 909.496 52.7773L894.285 58.4038L884.56 61.838C884.232 61.9535 883.869 61.8912 883.599 61.6732L882.941 61.1429C882.316 60.6384 882.511 59.6402 883.28 59.4076L884.69 58.9806C885.478 58.7424 885.657 57.7087 884.995 57.2196L879.172 52.9113C879 52.7839 878.791 52.7152 878.577 52.7152H876.062C875.51 52.7152 875.062 53.1629 875.062 53.7152V58.0729C875.062 58.2878 875.131 58.497 875.26 58.6695L877.72 61.9787C878.21 62.6385 877.74 63.5754 876.917 63.5754H873.078C872.728 63.5754 872.412 63.364 872.278 63.04V63.04C872.064 62.5222 871.422 62.3407 870.969 62.67L865.529 66.6211C865.477 66.6591 865.429 66.7021 865.384 66.7495L864.165 68.0617C863.843 68.4083 863.935 68.9659 864.352 69.1901V69.1901C865.098 69.5916 864.663 70.7283 863.84 70.5288L856.596 68.775C856.519 68.7563 856.44 68.7469 856.36 68.7469H852.994C852.442 68.7469 851.994 69.1946 851.994 69.7469V71.3718C851.994 71.6741 852.131 71.9601 852.366 72.15L852.795 72.4958C853.636 73.1748 852.951 74.5205 851.907 74.2397L850.825 73.9485C850.75 73.9285 850.679 73.9 850.611 73.8635L845.347 71.0315C845.092 70.8943 844.909 70.6532 844.846 70.3707L843.939 66.3466C843.798 65.7213 844.274 65.1268 844.915 65.1268H851.826C851.938 65.1268 852.048 65.1454 852.153 65.1818L856.074 66.5378C856.333 66.6275 856.618 66.6067 856.861 66.4804L865.297 62.1038C865.399 62.0509 865.491 61.9809 865.569 61.8969L866.587 60.8014C867.002 60.3551 866.924 59.6448 866.423 59.2982L863.02 56.9441C862.932 56.8834 862.835 56.8371 862.733 56.807L855.839 54.7838L847.509 52.7152L837.897 51.1637L826.364 49.0951L818.033 47.0265L809.222 43.9785C809.116 43.9422 809.006 43.9236 808.895 43.9236H798.278C798.206 43.9236 798.134 43.9314 798.063 43.947L784.073 47.0265L766.772 52.7152L759.201 54.5953C758.755 54.706 758.442 55.1064 758.442 55.5658V56.1401C758.442 56.5664 758.712 56.9459 759.115 57.0852L760.831 57.6789C761.645 57.9605 761.746 59.071 760.996 59.4947L756.646 61.9522C756.562 61.9997 756.485 62.0593 756.418 62.1289L752.034 66.6783L748.388 71.5827C748.259 71.7561 748.077 71.8831 747.87 71.9446L736.152 75.4291C736.061 75.4561 735.974 75.496 735.894 75.5475L726.508 81.6079C726.438 81.6529 726.374 81.7064 726.318 81.7672L722.826 85.5251C722.654 85.7101 722.558 85.9533 722.558 86.2058V94.8154C722.558 95.015 722.618 95.21 722.73 95.3753L726.22 100.539C726.339 100.715 726.511 100.849 726.711 100.921L731.751 102.729C732.018 102.824 732.313 102.802 732.562 102.668L735.933 100.854C735.987 100.825 736.039 100.791 736.087 100.752L740.958 96.8209C741.078 96.7237 741.219 96.6558 741.371 96.6225L747.396 95.2962C747.858 95.1945 748.328 95.4306 748.523 95.862L750.752 100.81L751.951 104.197C752.006 104.35 752.096 104.488 752.216 104.598L756.451 108.504C756.496 108.546 756.538 108.593 756.575 108.643L757.911 110.439C758.213 110.846 758.773 110.962 759.213 110.709L762.814 108.633C762.889 108.59 762.97 108.556 763.053 108.534L770.1 106.638C770.423 106.551 770.681 106.309 770.788 105.992L772.502 100.919C772.526 100.847 772.559 100.778 772.599 100.713L774.289 97.9856C774.401 97.8048 774.567 97.6645 774.764 97.5849L776.886 96.7288C776.978 96.6918 777.063 96.6416 777.14 96.5796L780.928 93.5223C781.273 93.244 781.393 92.772 781.224 92.3624L779.775 88.8545C779.657 88.5671 779.411 88.3513 779.111 88.2705L776.483 87.5635C776.046 87.446 775.742 87.05 775.742 86.5978V82.2732C775.742 81.9052 775.945 81.5669 776.269 81.3926L779.507 79.6501C779.56 79.6215 779.616 79.5977 779.674 79.5791L785.818 77.5954C785.935 77.5578 786.044 77.499 786.139 77.422L788.405 75.5934C788.506 75.5118 788.59 75.4113 788.653 75.2976L791.083 70.8838C791.109 70.8383 791.137 70.7949 791.169 70.7539L794.025 67.066C794.214 66.8214 794.506 66.6783 794.815 66.6783H799.918C800.033 66.6783 800.147 66.6981 800.256 66.737L803.745 67.9888C804.56 68.2811 804.644 69.4005 803.882 69.8107L792.519 75.9247C792.442 75.966 792.37 76.0173 792.307 76.0772L788.872 79.311C788.672 79.4999 788.558 79.7634 788.558 80.039V83.8685C788.558 84.1211 788.654 84.3643 788.825 84.5493L792.403 88.3986L794.118 90.7056C794.252 90.8862 794.443 91.0162 794.66 91.0747L801.63 92.9498C801.877 93.0161 802.139 92.9857 802.364 92.8647L805.637 91.1038C805.783 91.0254 805.945 90.9844 806.111 90.9844H808.233C809.311 90.9844 809.626 92.4557 808.642 92.8969L807.234 93.5281C807.172 93.5561 807.107 93.5776 807.04 93.5923L800.457 95.0413C800.221 95.0931 800.013 95.228 799.869 95.4213L798.743 96.9362C798.423 97.367 798.5 97.9738 798.917 98.3109L801.942 100.752C801.99 100.791 802.042 100.825 802.096 100.854L803.643 101.686C804.439 102.115 804.302 103.298 803.429 103.533L800.415 104.343C800.205 104.4 799.983 104.386 799.781 104.305L796.574 103.011C796.363 102.925 796.128 102.915 795.91 102.981L792.315 104.069C791.702 104.254 791.419 104.959 791.733 105.517L793.825 109.231C794.099 109.719 793.92 110.337 793.427 110.602L788.633 113.182C788.583 113.208 788.531 113.231 788.478 113.249L780.964 115.776C780.901 115.797 780.835 115.812 780.769 115.82L772.539 116.842H764.982C764.894 116.842 764.806 116.83 764.722 116.808L761.132 115.842C761.048 115.819 760.96 115.808 760.873 115.808H758.709C758.534 115.808 758.362 115.762 758.21 115.674L753.956 113.222L748.113 110.392C747.768 110.225 747.549 109.876 747.549 109.492V105.105C747.549 104.697 747.301 104.33 746.923 104.178L741.723 102.079C741.367 101.936 740.96 102.008 740.676 102.266L736.342 106.201C736.134 106.391 736.015 106.66 736.015 106.942V112.911C736.015 113.114 736.076 113.311 736.191 113.478L738.322 116.574C738.738 117.179 738.383 118.011 737.658 118.128L729.799 119.397C729.672 119.417 729.55 119.462 729.44 119.528L721.918 124.082L716.262 127.632C716.188 127.679 716.121 127.735 716.061 127.799L710.68 133.589C710.491 133.792 710.226 133.908 709.948 133.908H705.134C704.81 133.908 704.505 134.065 704.318 134.33L702.322 137.149C702.152 137.389 701.884 137.542 701.591 137.567L690.55 138.505C690.144 138.54 689.8 138.817 689.68 139.206L688.816 141.995C688.686 142.414 688.299 142.7 687.86 142.7H675.141M279.144 273.539L285.217 274.519C285.434 274.554 285.656 274.517 285.85 274.413L289.845 272.263C290.511 271.905 290.553 270.965 289.922 270.548L284.432 266.923C284.325 266.852 284.205 266.803 284.079 266.778L276.727 265.294C276.63 265.274 276.531 265.269 276.432 265.279L261.465 266.728C260.952 266.778 260.561 267.209 260.561 267.724V268.186C260.561 268.606 260.823 268.981 261.217 269.125L267.528 271.44C267.582 271.46 267.639 271.476 267.696 271.486L279.144 273.539ZM311.823 279.228L302.41 277.202C302.279 277.174 302.144 277.172 302.013 277.197L292.132 279.073C291.66 279.163 291.318 279.575 291.318 280.056V280.201C291.318 280.559 291.509 280.889 291.819 281.068L295.804 283.365L303.946 288.925C304.07 289.01 304.211 289.065 304.358 289.088L317.515 291.111C317.565 291.118 317.616 291.122 317.667 291.122H326.939C327.111 291.122 327.281 291.078 327.431 290.993L332.805 287.956C333.259 287.7 333.44 287.137 333.22 286.664L331.861 283.74C331.75 283.5 331.548 283.314 331.299 283.222L324.748 280.819C324.675 280.793 324.6 280.774 324.523 280.765L311.823 279.228ZM300.289 29.9605L282.665 26.0813C281.675 25.8633 281.601 24.48 282.562 24.1568L286.833 22.7204L297.612 20.1617C297.688 20.1437 297.765 20.1346 297.843 20.1346H307.18C307.285 20.1346 307.388 20.1183 307.488 20.0863L312.867 18.3498C313.363 18.1895 313.899 18.4376 314.098 18.9197L315.62 22.6054C315.652 22.6817 315.693 22.7539 315.742 22.8202L317.59 25.3061L320.859 28.6984C321.397 29.256 321.124 30.1865 320.37 30.3653L311.413 32.4914C311.262 32.5275 311.103 32.5275 310.951 32.4914L300.289 29.9605ZM332.969 16.5146L324.198 17.9303C323.713 18.0085 323.357 18.4268 323.357 18.9175V19.4598C323.357 19.8676 323.605 20.2345 323.983 20.3871L329.585 22.6477C329.704 22.6957 329.831 22.7204 329.959 22.7204H336.519C336.711 22.7204 336.898 22.6659 337.059 22.5614C340.346 20.4373 346.707 16.2871 347.706 15.4802C348.732 14.6528 343.435 15.1355 340.658 15.4802L332.969 16.5146ZM618.753 64.6097L613.207 63.6149C613.061 63.5889 612.913 63.5952 612.77 63.6335L610.872 64.1442C610.116 64.3476 609.876 65.3013 610.446 65.8379L612.467 67.741C612.778 68.0334 612.869 68.4908 612.693 68.8798L611.059 72.5076C610.761 73.1694 611.245 73.9184 611.971 73.9184H612.829C612.933 73.9184 613.037 73.9347 613.136 73.9668L619.321 75.9636C619.37 75.9792 619.419 75.9911 619.469 75.9992L625.656 76.9977C625.753 77.0134 625.851 77.0147 625.948 77.0016L637.225 75.4848C637.298 75.4749 637.371 75.4567 637.44 75.4308L645.366 72.4787C645.561 72.406 645.728 72.2742 645.845 72.1016L648.818 67.7028C649.174 67.1754 648.954 66.4537 648.364 66.2155L644.452 64.637C644.407 64.6188 644.36 64.6039 644.313 64.5925L638.241 63.1223C638.068 63.0803 637.886 63.0854 637.716 63.137L632.85 64.6097L627.368 66.5761C627.182 66.6427 626.981 66.6529 626.79 66.6053L618.753 64.6097ZM665.53 127.702L670.106 125.394C670.443 125.224 670.656 124.878 670.656 124.501V113.331C670.656 112.726 670.122 112.259 669.522 112.34L663.188 113.192C663.042 113.212 662.902 113.263 662.779 113.343L659.835 115.244C659.787 115.275 659.741 115.31 659.699 115.349L655.599 119.131C655.394 119.32 655.277 119.587 655.277 119.866V122.503C655.277 122.843 655.105 123.159 654.82 123.343L652.531 124.821C652.246 125.005 652.073 125.322 652.073 125.661V129.805C652.073 130.357 652.521 130.805 653.073 130.805H658.271C658.41 130.805 658.547 130.776 658.674 130.72L665.53 127.702ZM692.442 113.222L689.124 111.436C688.8 111.262 688.597 110.924 688.597 110.556V106.341C688.597 106.109 688.678 105.884 688.826 105.705L689.808 104.516C690.347 103.864 689.883 102.879 689.037 102.879H688.242C687.512 102.879 687.028 102.12 687.336 101.458L688.504 98.9421C688.566 98.8101 688.597 98.6663 688.597 98.5207V95.965C688.597 95.1645 687.704 94.6885 687.039 95.1352L684.906 96.5699C684.805 96.6381 684.692 96.6871 684.573 96.7146L680.463 97.6623C680.334 97.6921 680.212 97.7471 680.105 97.8242L674.714 101.692C674.574 101.792 674.462 101.927 674.39 102.083L672.907 105.273C672.714 105.69 672.829 106.184 673.186 106.473L674.341 107.405C674.446 107.49 674.533 107.595 674.596 107.714L676.28 110.885C676.373 111.06 676.516 111.203 676.69 111.297L679.741 112.939C680.065 113.113 680.267 113.451 680.267 113.819V114.879C680.267 115.143 680.372 115.396 680.557 115.583L682.541 117.584C682.726 117.771 682.83 118.024 682.83 118.288V122.373C682.83 122.781 682.583 123.148 682.205 123.3L680.267 124.082L676.423 126.151L674.335 126.993C673.59 127.294 673.486 128.307 674.155 128.753L676.798 130.514C677.461 130.956 677.367 131.958 676.633 132.268L676.577 132.291C676.475 132.335 676.381 132.394 676.298 132.468L672.601 135.784C671.918 136.396 672.351 137.528 673.269 137.528H678.188C678.292 137.528 678.396 137.512 678.495 137.48L681.549 136.494L686.584 135.478C686.645 135.466 686.704 135.448 686.761 135.425L690.382 133.964C690.473 133.927 690.559 133.877 690.636 133.815L692.077 132.652C692.308 132.465 692.611 132.391 692.902 132.449L697.356 133.348C697.496 133.376 697.64 133.374 697.779 133.342L701.772 132.422C701.956 132.379 702.124 132.285 702.257 132.151L704.617 129.771L707.685 126.056C708.087 125.57 707.943 124.838 707.388 124.539L704.699 123.092C704.644 123.063 704.593 123.028 704.544 122.989L700.131 119.428L697.63 116.904C697.589 116.863 697.544 116.825 697.497 116.791L692.442 113.222ZM925.683 157.18L920.852 159.779C920.345 160.052 920.173 160.696 920.476 161.186L923.761 166.489L928.817 175.67C928.864 175.754 928.922 175.832 928.991 175.899L934.356 181.192C934.547 181.38 934.654 181.637 934.654 181.904V192.231C934.654 192.617 934.876 192.969 935.225 193.134L945.436 197.982C945.51 198.017 945.588 198.043 945.667 198.059L955.262 199.995C955.597 200.063 955.943 199.955 956.18 199.709L959.616 196.143C959.99 195.756 959.99 195.142 959.616 194.755L955.863 190.861C955.821 190.817 955.783 190.769 955.749 190.718L950.757 183.164C950.702 183.08 950.659 182.988 950.631 182.892L948.232 174.663C948.154 174.397 947.97 174.175 947.722 174.05L943.236 171.787C943.071 171.704 942.933 171.577 942.836 171.421L937.479 162.775C937.314 162.508 937.284 162.179 937.397 161.887L940 155.164C940.221 154.592 939.881 153.958 939.283 153.826L933.763 152.611C933.512 152.556 933.25 152.6 933.03 152.733L925.683 157.18ZM917.994 492.294L915.059 486.135C914.895 485.79 914.941 485.381 915.18 485.082L920.339 478.605C920.48 478.427 920.557 478.208 920.557 477.981V462.602C920.557 462.405 920.616 462.212 920.725 462.047L924.887 455.809C924.989 455.657 925.13 455.535 925.296 455.458L937.013 449.983C937.147 449.92 937.266 449.828 937.361 449.714L943.57 442.197C943.607 442.153 943.639 442.106 943.667 442.056L946.44 437.208C946.856 436.481 947.927 436.556 948.237 437.334L953.1 449.546C953.188 449.767 953.195 450.011 953.119 450.236L943.625 478.331L937.291 492.133C937.242 492.24 937.175 492.337 937.092 492.42L929.895 499.681C929.665 499.913 929.336 500.018 929.014 499.963L921.1 498.594C920.762 498.535 920.478 498.308 920.347 497.99L917.994 492.294ZM1453.68 457.645C1452.68 455.217 1450.77 449.951 1449.89 447.464C1449.85 447.355 1449.8 447.256 1449.73 447.167L1434.73 428.766C1434.28 428.225 1433.44 428.29 1433.09 428.891L1428.19 437.242C1428.1 437.395 1428.05 437.57 1428.05 437.748V452.99C1428.05 453.315 1427.89 453.619 1427.63 453.807L1418.28 460.405C1417.98 460.617 1417.59 460.648 1417.26 460.486L1403.27 453.61C1403.13 453.543 1402.98 453.508 1402.83 453.508H1395.33C1394.96 453.508 1394.62 453.305 1394.45 452.98L1382.84 431.281C1382.66 430.956 1382.32 430.753 1381.96 430.753H1375.61C1375.17 430.753 1374.78 431.045 1374.65 431.47L1371.73 441.366C1371.69 441.528 1371.6 441.676 1371.48 441.795L1366.83 446.383C1366.36 446.846 1365.58 446.736 1365.25 446.162L1362.98 442.123C1362.8 441.808 1362.47 441.613 1362.11 441.613H1350.94C1350.67 441.613 1350.41 441.723 1350.22 441.917L1338.98 453.508L1325.53 464.885L1316.68 471.514C1316.6 471.576 1316.5 471.625 1316.41 471.659L1303.1 476.262L1277.89 487.453C1277.62 487.572 1277.42 487.8 1277.34 488.08L1272.38 504.565C1272.36 504.658 1272.34 504.755 1272.34 504.853V530.715C1272.34 530.951 1272.26 531.18 1272.11 531.36L1263.77 541.226C1263.29 541.793 1263.58 542.666 1264.3 542.843L1277.21 546.015C1277.38 546.056 1277.55 546.053 1277.72 546.006L1290.28 542.458L1307.58 535.735L1325.45 531.1C1325.5 531.087 1325.55 531.078 1325.6 531.073L1350.07 528.541C1350.35 528.511 1350.64 528.604 1350.85 528.795L1365.71 542.295C1365.83 542.402 1365.97 542.479 1366.13 542.521L1378.83 545.937C1379.15 546.025 1379.41 546.272 1379.52 546.593L1382.55 555.904L1394.33 586.426C1394.55 586.976 1395.18 587.224 1395.71 586.962L1403.06 583.313L1417.65 574.095C1417.75 574.035 1417.83 573.959 1417.9 573.871L1428 561.141C1428.03 561.097 1428.07 561.057 1428.11 561.019L1444.71 546.078L1466.38 528.59C1466.46 528.527 1466.52 528.456 1466.58 528.373C1470.66 522.292 1478.67 509.757 1478.67 507.292V495.749C1478.67 495.521 1478.59 495.3 1478.45 495.123L1463.35 476.334C1463.31 476.287 1463.28 476.237 1463.25 476.183C1460.46 470.98 1454.7 460.115 1453.68 457.645ZM1332.57 415.239H1353.86C1354.88 415.239 1355.25 416.588 1354.37 417.102L1346.26 421.825C1346.11 421.915 1345.94 421.962 1345.76 421.962H1307.81C1307.66 421.962 1307.51 421.929 1307.38 421.865L1296.89 416.887C1296.76 416.823 1296.61 416.79 1296.47 416.79H1272.45C1272.38 416.79 1272.3 416.782 1272.23 416.765L1252.29 412.239C1252 412.173 1251.76 411.984 1251.62 411.722L1249.63 407.864C1249.24 407.105 1249.92 406.235 1250.75 406.433L1259.41 408.489C1259.49 408.507 1259.57 408.516 1259.64 408.516H1277.24C1277.39 408.516 1277.54 408.548 1277.67 408.611L1285.06 412.089C1285.12 412.12 1285.19 412.144 1285.26 412.16L1305.52 416.759C1305.62 416.779 1305.71 416.787 1305.8 416.782L1332.57 415.239ZM1220.44 365.592L1213.73 360.178C1213.23 359.774 1212.48 359.942 1212.2 360.522L1208.36 368.489C1208.3 368.625 1208.26 368.773 1208.26 368.923V372.893C1208.26 373.183 1208.39 373.458 1208.61 373.648L1224.92 387.83L1237.35 399.221C1237.99 399.809 1239.02 399.355 1239.02 398.484V378.664C1239.02 378.263 1238.78 377.902 1238.41 377.744L1228.31 373.426C1228.19 373.375 1228.08 373.302 1227.99 373.21L1220.44 365.592ZM1470.34 415.239L1475.65 420.476C1475.93 420.751 1476.34 420.838 1476.71 420.699L1485.64 417.305C1486.3 417.056 1487 417.54 1487 418.24V426.956C1487 427.373 1486.74 427.747 1486.35 427.893L1478.84 430.69C1478.73 430.732 1478.61 430.753 1478.49 430.753H1470.99C1470.6 430.753 1470.24 430.518 1470.08 430.154L1466.67 422.363C1466.56 422.107 1466.35 421.91 1466.08 421.818L1457.71 418.922C1457.59 418.88 1457.47 418.815 1457.38 418.73L1450.39 412.617C1450.06 412.33 1449.58 412.289 1449.21 412.514L1444.84 415.162C1444.75 415.213 1444.68 415.275 1444.61 415.348L1439.98 420.482C1439.74 420.756 1439.36 420.872 1439 420.783L1431.56 418.936C1431.36 418.886 1431.18 418.774 1431.04 418.616L1425.55 412.214C1425.51 412.162 1425.47 412.105 1425.44 412.045L1423.15 407.887C1423 407.63 1422.98 407.323 1423.09 407.048L1425.06 401.881C1425.28 401.297 1424.92 400.654 1424.3 400.541L1411.68 398.226C1411.49 398.191 1411.31 398.102 1411.17 397.97L1408.37 395.333C1407.93 394.919 1407.23 394.986 1406.88 395.475L1403.65 399.936C1403.33 400.388 1402.69 400.486 1402.25 400.152L1394.82 394.624C1394.76 394.577 1394.69 394.537 1394.62 394.506L1383 389.569C1382.72 389.45 1382.51 389.211 1382.42 388.919L1379.71 379.275C1379.53 378.637 1380.01 378.004 1380.67 378.004H1382.45C1382.52 378.004 1382.59 378.011 1382.66 378.025L1393.94 380.421C1394.4 380.519 1394.73 380.927 1394.73 381.399V383.164C1394.73 383.495 1394.89 383.804 1395.16 383.99L1402.8 389.207C1402.97 389.32 1403.17 389.381 1403.37 389.381H1407.01C1407.35 389.381 1407.66 389.216 1407.84 388.941L1410.94 384.362C1411.2 383.972 1411.7 383.818 1412.14 383.995L1425.49 389.381L1439.49 394.519C1439.55 394.541 1439.61 394.569 1439.67 394.603L1449.73 400.695C1449.8 400.737 1449.87 400.77 1449.95 400.795L1464.7 405.374C1465.47 405.611 1465.66 406.605 1465.04 407.107L1464.18 407.8C1463.71 408.179 1463.68 408.885 1464.12 409.302L1470.34 415.239ZM1290.28 359.386L1302.68 345.382C1302.93 345.091 1303.34 344.976 1303.71 345.085L1309.98 346.926C1310.09 346.958 1310.19 347.009 1310.29 347.076L1315.69 351.003C1316.16 351.342 1316.24 352.005 1315.88 352.449L1307.81 362.212C1307.66 362.391 1307.58 362.616 1307.58 362.849V365.431C1307.58 365.538 1307.6 365.644 1307.63 365.745L1310.1 373.196C1310.13 373.298 1310.15 373.404 1310.15 373.51V380.349C1310.15 380.507 1310.11 380.663 1310.04 380.804L1305.66 389.381C1304.81 391.105 1302.46 395.276 1299.89 398.173C1297.35 401.044 1289.14 397.035 1285.26 394.614C1285.19 394.572 1285.12 394.54 1285.04 394.515L1278.15 392.196C1277.74 392.059 1277.47 391.677 1277.47 391.248V379.004C1277.47 378.451 1277.92 378.004 1278.47 378.004H1293.61C1294.58 378.004 1294.98 376.764 1294.2 376.195L1290.43 373.456C1290.33 373.385 1290.25 373.298 1290.18 373.198L1285.56 366.209C1285.32 365.843 1285.35 365.36 1285.63 365.021L1290.28 359.386ZM1320.4 296.811L1323.66 291.216C1324.18 290.334 1325.53 290.699 1325.53 291.72V294.066C1325.53 294.171 1325.54 294.276 1325.57 294.376L1328.68 303.9C1328.71 304 1328.73 304.105 1328.73 304.21V311.843C1328.73 312.395 1328.28 312.843 1327.73 312.843H1321.05C1320.66 312.843 1320.3 312.607 1320.14 312.243L1316.75 304.494C1316.63 304.214 1316.64 303.894 1316.78 303.624L1320.4 296.811ZM1346.03 321.634L1340.76 315.063C1340.17 314.326 1338.98 314.744 1338.98 315.688V321.423C1338.98 321.562 1339.01 321.7 1339.07 321.827L1341.94 328.329C1342.09 328.665 1342.05 329.055 1341.82 329.346L1339.4 332.474C1339.15 332.798 1339.12 333.243 1339.33 333.596L1345.22 343.539C1345.6 344.172 1346.5 344.196 1346.91 343.584L1350.35 338.435C1350.46 338.271 1350.52 338.078 1350.52 337.88V329.159C1350.52 328.973 1350.46 328.79 1350.37 328.632L1346.03 321.634ZM1346.03 132.357L1350.43 140.475C1350.49 140.578 1350.56 140.671 1350.65 140.749L1356.76 146.133C1357.2 146.514 1357.86 146.451 1358.22 145.995L1360.7 142.792C1360.74 142.731 1360.8 142.675 1360.86 142.626L1362.37 141.409C1362.86 141.009 1362.86 140.253 1362.37 139.853L1341.77 123.227C1340.86 122.492 1339.64 123.653 1340.33 124.597L1346.03 132.357ZM757.312 197.686L768.229 200.005C768.523 200.067 768.83 199.994 769.064 199.805L770.934 198.296C771.43 197.896 771.43 197.14 770.934 196.739L768.864 195.069C768.752 194.979 768.622 194.914 768.483 194.878L757.766 192.147C757.134 191.986 756.519 192.463 756.519 193.116V196.708C756.519 197.18 756.85 197.588 757.312 197.686ZM741.946 173.702L741.047 172.432C740.74 171.999 740.148 171.881 739.699 172.163L737.675 173.433C736.825 173.967 737.203 175.28 738.207 175.28H741.13C741.941 175.28 742.415 174.365 741.946 173.702ZM736.316 190.693L740.245 187.875C740.411 187.756 740.537 187.589 740.605 187.396L742.591 181.785C742.821 181.135 742.339 180.452 741.648 180.452H735.733C735.181 180.452 734.733 180.899 734.733 181.452V189.881C734.733 190.695 735.654 191.168 736.316 190.693ZM819.529 208.895H820.893C822.026 208.895 822.286 207.308 821.212 206.947L819.47 206.361C819.367 206.327 819.26 206.309 819.151 206.309H818.223C817.144 206.309 816.83 207.781 817.813 208.222L819.12 208.807C819.249 208.865 819.388 208.895 819.529 208.895ZM861.117 208.895H864.451C865.003 208.895 865.451 208.447 865.451 207.895V206.887C865.451 206.53 865.26 206.199 864.95 206.021L861.344 203.942C861.102 203.803 860.814 203.77 860.548 203.853L855.712 205.354C854.774 205.645 854.774 206.973 855.712 207.264L860.82 208.85C860.916 208.88 861.016 208.895 861.117 208.895ZM1119.83 335.872L1113.5 333.514C1112.84 333.271 1112.15 333.754 1112.15 334.451V344.155C1112.15 344.309 1112.18 344.461 1112.25 344.599L1115.44 351.029C1115.72 351.602 1116.47 351.765 1116.96 351.363L1120.11 348.826C1120.34 348.636 1120.48 348.35 1120.48 348.048V336.809C1120.48 336.391 1120.22 336.018 1119.83 335.872ZM1379.26 192.547L1375.6 200.42C1375.54 200.552 1375.51 200.696 1375.51 200.842V210.259C1375.51 210.891 1376.08 211.364 1376.7 211.239L1385.37 209.49C1385.62 209.44 1385.84 209.299 1385.99 209.095L1390.05 203.469C1390.18 203.298 1390.24 203.093 1390.24 202.883V192.67C1390.24 192.459 1390.18 192.254 1390.05 192.084L1385.84 186.249C1385.78 186.177 1385.72 186.112 1385.65 186.056L1380.98 182.283C1380.32 181.755 1379.35 182.22 1379.35 183.061V192.125C1379.35 192.271 1379.32 192.415 1379.26 192.547ZM1371.42 167.306L1379.08 173.013C1379.26 173.142 1379.47 173.212 1379.68 173.212H1382.26C1382.45 173.212 1382.64 173.156 1382.8 173.052L1391.95 167.143C1392.09 167.053 1392.21 166.93 1392.29 166.785L1396.12 159.822C1396.55 159.04 1395.82 158.129 1394.96 158.38L1390.32 159.743C1390.27 159.758 1390.22 159.777 1390.17 159.799L1379.84 164.703C1379.54 164.849 1379.18 164.829 1378.89 164.649L1372.55 160.714C1371.88 160.3 1371.02 160.779 1371.02 161.563V166.504C1371.02 166.82 1371.17 167.117 1371.42 167.306ZM1366.49 156.017L1363.65 153.339C1363.44 153.15 1363.33 152.886 1363.33 152.611V151.848C1363.33 151.164 1364 150.682 1364.65 150.9L1369.44 152.511C1370.15 152.751 1370.36 153.669 1369.81 154.187L1367.86 156.017C1367.48 156.38 1366.88 156.38 1366.49 156.017ZM1320.27 268.17L1316.62 277.5C1316.58 277.617 1316.55 277.74 1316.55 277.865V287.966C1316.55 288.887 1315.42 289.318 1314.81 288.629L1310.4 283.649C1310.24 283.466 1310.15 283.23 1310.15 282.986V270.124C1310.15 269.989 1310.17 269.855 1310.23 269.731L1315.47 257.469C1315.83 256.608 1317.08 256.68 1317.34 257.577L1320.3 267.521C1320.36 267.734 1320.36 267.963 1320.27 268.17ZM1195.18 356.907L1203.03 359.17C1203.47 359.297 1203.94 359.107 1204.17 358.709L1207.4 353.129C1207.78 352.463 1207.3 351.629 1206.53 351.629H1193.4C1192.62 351.629 1192.14 352.489 1192.55 353.156L1194.6 356.473C1194.74 356.684 1194.94 356.838 1195.18 356.907ZM1220.83 359.686L1232.49 368.602C1232.57 368.663 1232.66 368.713 1232.76 368.747L1243.18 372.533C1244.02 372.836 1244.8 371.983 1244.43 371.176L1239.11 359.585C1239.05 359.454 1239.02 359.312 1239.02 359.168V349.709C1239.02 349.306 1238.78 348.942 1238.41 348.787L1221.82 341.864C1221.17 341.589 1220.44 342.073 1220.44 342.787V358.892C1220.44 359.203 1220.58 359.497 1220.83 359.686ZM366.454 18.0956L377.735 20.1189C377.793 20.1294 377.853 20.1346 377.912 20.1346H387.693C388.448 20.1346 388.93 19.3317 388.577 18.6656L387.605 16.8365C387.495 16.6286 387.315 16.4662 387.096 16.3781L379.925 13.4843C379.806 13.4363 379.679 13.4116 379.551 13.4116H361.799C360.768 13.4116 360.411 14.7819 361.311 15.2846L366.143 17.9843C366.239 18.0384 366.345 18.076 366.454 18.0956Z" stroke="url(#paint0_linear_42_688)" stroke-width="2"/>
<defs>
<linearGradient id="paint0_linear_42_688" x1="741.126" y1="0.999932" x2="741.126" y2="694.938" gradientUnits="userSpaceOnUse">
<stop stop-color="#0067B2"/>
<stop offset="0.5" stop-color="#F80405"/>
<stop offset="1" stop-color="#0889AB"/>
</linearGradient>
</defs>
</svg>
